<svg xmlns="http://www.w3.org/2000/svg" version="1.1" xmlns:xlink="http://www.w3.org/1999/xlink" xmlns:svgjs="http://svgjs.dev/svgjs" width="2000" height="333" viewBox="0 0 2000 333"><g transform="matrix(1,0,0,1,-1.2121212121212466,-1.596498218928673)"><svg viewBox="0 0 396 66" data-background-color="#ffffff" preserveAspectRatio="xMidYMid meet" height="333" width="2000" xmlns="http://www.w3.org/2000/svg" xmlns:xlink="http://www.w3.org/1999/xlink"><g id="tight-bounds" transform="matrix(1,0,0,1,0.2400000000000091,0.31642307041829554)"><svg viewBox="0 0 395.52 65.36691116099865" height="65.36691116099865" width="395.52"><g><svg viewBox="0 0 505.1404219180516 83.48369003677855" height="65.36691116099865" width="395.52"><g transform="matrix(1,0,0,1,109.62042191805159,14.063542394157004)"><svg viewBox="0 0 395.52 55.35660524846455" height="55.35660524846455" width="395.52"><g id="textblocktransform"><svg viewBox="0 0 395.52 55.35660524846455" height="55.35660524846455" width="395.52" id="textblock"><g><svg viewBox="0 0 395.52 55.35660524846455" height="55.35660524846455" width="395.52"><g transform="matrix(1,0,0,1,0,0)"><svg width="395.52" viewBox="4.93 -36.23 262.34 36.72" height="55.35660524846455" data-palette-color="#000000"><path d="M4.93-29.13L4.93-32.93 25.02-32.93 25.02-29.13 17.31-29.13 17.31-3.81 25.02-3.81 25.02 0 4.93 0 4.93-3.81 12.65-3.81 12.65-29.13 4.93-29.13ZM55.61 0L51.19 0 51.19-16.97Q51.19-20.29 49.91-21.9 48.63-23.51 45.82-23.51L45.82-23.51Q42.8-23.51 40.85-21.3 38.91-19.09 38.91-15.31L38.91-15.31 38.91 0 34.52 0 34.52-20.78Q34.52-25.39 34.37-26.42L34.37-26.42 38.52-26.42Q38.55-26.29 38.57-25.76 38.6-25.22 38.63-24.52 38.67-23.83 38.72-21.9L38.72-21.9 38.79-21.9Q41.35-26.9 47.24-26.9L47.24-26.9Q51.46-26.9 53.54-24.62 55.61-22.34 55.61-17.6L55.61-17.6 55.61 0ZM85.88-7.54L85.88-7.54Q85.88-3.78 83.04-1.65 80.2 0.49 75.17 0.49L75.17 0.49Q70.14 0.49 67.51-1.09 64.89-2.66 64.08-6.05L64.08-6.05 67.96-6.81Q68.43-4.71 69.95-3.75 71.48-2.78 75.17-2.78L75.17-2.78Q81.76-2.78 81.76-6.96L81.76-6.96Q81.76-8.52 80.56-9.48 79.37-10.45 76.9-11.06L76.9-11.06Q70.45-12.65 68.72-13.55 66.99-14.45 66.06-15.81 65.13-17.16 65.13-19.19L65.13-19.19Q65.13-22.78 67.72-24.8 70.31-26.83 75.21-26.83L75.21-26.83Q79.51-26.83 82.08-25.21 84.64-23.58 85.27-20.48L85.27-20.48 81.32-20Q81.05-21.75 79.58-22.66 78.12-23.56 75.21-23.56L75.21-23.56Q69.23-23.56 69.23-19.87L69.23-19.87Q69.23-18.41 70.25-17.53 71.26-16.65 73.51-16.11L73.51-16.11 76.41-15.36Q80.39-14.38 82.14-13.43 83.88-12.48 84.88-11.05 85.88-9.62 85.88-7.54ZM98.75-22.95L94.65-22.95 94.65-26.42 98.8-26.42 100.21-33.3 103.14-33.3 103.14-26.42 113.69-26.42 113.69-22.95 103.14-22.95 103.14-7.03Q103.14-5.1 104.18-4.17 105.22-3.25 107.59-3.25L107.59-3.25Q110.86-3.25 114.84-4.08L114.84-4.08 114.84-0.73Q110.71 0.39 106.66 0.39L106.66 0.39Q102.7 0.39 100.72-1.28 98.75-2.95 98.75-6.57L98.75-6.57 98.75-22.95ZM146.89-2.71L146.89-2.71Q147.52-2.71 148.33-2.88L148.33-2.88 148.33-0.15Q146.67 0.24 144.94 0.24L144.94 0.24Q142.49 0.24 141.38-1.04 140.27-2.32 140.13-5.05L140.13-5.05 139.98-5.05Q138.39-2.1 136.23-0.81 134.07 0.49 130.9 0.49L130.9 0.49Q127.04 0.49 125.09-1.61 123.13-3.71 123.13-7.37L123.13-7.37Q123.13-15.89 134.22-16.02L134.22-16.02 139.98-16.11 139.98-17.55Q139.98-20.75 138.69-22.16 137.39-23.56 134.56-23.56L134.56-23.56Q131.68-23.56 130.41-22.53 129.14-21.51 128.9-19.36L128.9-19.36 124.31-19.78Q125.43-26.9 134.63-26.9L134.63-26.9Q139.52-26.9 141.97-24.62 144.42-22.34 144.42-18.02L144.42-18.02 144.42-6.64Q144.42-4.69 144.94-3.7 145.45-2.71 146.89-2.71ZM132.02-2.86L132.02-2.86Q134.37-2.86 136.17-3.98 137.98-5.1 138.98-6.98 139.98-8.86 139.98-10.86L139.98-10.86 139.98-13.04 135.34-12.94Q132.46-12.89 130.95-12.3 129.43-11.72 128.59-10.51 127.75-9.3 127.75-7.3L127.75-7.3Q127.75-5.3 128.84-4.08 129.92-2.86 132.02-2.86ZM176.84 0L172.89 0 172.89-21.19Q172.89-24.49 172.96-26.1L172.96-26.1 173.03-28.54Q171.47-23.51 170.72-21.44L170.72-21.44 166.71-10.74 163.37-10.74 159.31-21.44Q158.87-22.56 156.97-28.54L156.97-28.54 157.07-21.19 157.07 0 153.16 0 153.16-32.93 158.95-32.93 163.46-21Q163.98-19.7 165.12-15.36L165.12-15.36 165.76-17.55 166.83-20.97 171.35-32.93 176.84-32.93 176.84 0ZM206.89-2.71L206.89-2.71Q207.53-2.71 208.33-2.88L208.33-2.88 208.33-0.15Q206.67 0.24 204.94 0.24L204.94 0.24Q202.5 0.24 201.39-1.04 200.28-2.32 200.13-5.05L200.13-5.05 199.99-5.05Q198.4-2.1 196.24-0.81 194.08 0.49 190.9 0.49L190.9 0.49Q187.05 0.49 185.09-1.61 183.14-3.71 183.14-7.37L183.14-7.37Q183.14-15.89 194.22-16.02L194.22-16.02 199.99-16.11 199.99-17.55Q199.99-20.75 198.69-22.16 197.4-23.56 194.57-23.56L194.57-23.56Q191.68-23.56 190.41-22.53 189.15-21.51 188.9-19.36L188.9-19.36 184.31-19.78Q185.43-26.9 194.64-26.9L194.64-26.9Q199.52-26.9 201.97-24.62 204.43-22.34 204.43-18.02L204.43-18.02 204.43-6.64Q204.43-4.69 204.94-3.7 205.45-2.71 206.89-2.71ZM192.03-2.86L192.03-2.86Q194.37-2.86 196.18-3.98 197.98-5.1 198.98-6.98 199.99-8.86 199.99-10.86L199.99-10.86 199.99-13.04 195.35-12.94Q192.47-12.89 190.95-12.3 189.44-11.72 188.6-10.51 187.75-9.3 187.75-7.3L187.75-7.3Q187.75-5.3 188.84-4.08 189.93-2.86 192.03-2.86ZM228.21-26.42L228.21-3.47 237.48-3.47 237.48 0 213.51 0 213.51-3.47 223.81-3.47 223.81-22.95 216.02-22.95 216.02-26.42 228.21-26.42ZM228.21-31.54L223.32-31.54 223.32-36.23 228.21-36.23 228.21-31.54ZM257.99-36.23L257.99-3.47 267.27-3.47 267.27 0 243.29 0 243.29-3.47 253.59-3.47 253.59-32.76 246.54-32.76 246.54-36.23 257.99-36.23Z" opacity="1" transform="matrix(1,0,0,1,0,0)" fill="#ffffff" class="wordmark-text-0" data-fill-palette-color="primary" id="text-0"></path></svg></g></svg></g></svg></g></svg></g><g><svg viewBox="0 0 83.48369003677855 83.48369003677855" height="83.48369003677855" width="83.48369003677855"><g><svg></svg></g><g id="icon-0"><svg viewBox="0 0 83.48369003677855 83.48369003677855" height="83.48369003677855" width="83.48369003677855"><g><path d="M0 41.742c0-23.053 18.688-41.742 41.742-41.742 23.053 0 41.742 18.688 41.742 41.742 0 23.053-18.688 41.742-41.742 41.742-23.053 0-41.742-18.688-41.742-41.742zM41.742 78.492c20.296 0 36.75-16.453 36.75-36.75 0-20.296-16.453-36.75-36.75-36.75-20.296 0-36.75 16.453-36.75 36.75 0 20.296 16.453 36.75 36.75 36.75z" data-fill-palette-color="tertiary" fill="#ffffff" stroke="transparent"></path></g><g transform="matrix(1,0,0,1,29.924193425073803,21.37313211994328)"><svg viewBox="0 0 23.635303186630953 40.737425796892" height="40.737425796892" width="23.635303186630953"><g><svg xmlns="http://www.w3.org/2000/svg" xmlns:xlink="http://www.w3.org/1999/xlink" version="1.1" x="0" y="0" viewBox="21.679106830508616 1 56.85827385947762 98" enable-background="new 0 0 100 100" xml:space="preserve" height="40.737425796892" width="23.635303186630953" class="icon-dxe-0" data-fill-palette-color="accent" id="dxe-0"><g fill="#261f20" data-fill-palette-color="accent"><path fill-rule="evenodd" clip-rule="evenodd" d="M30.545 28.822C29.38 36.039 30.875 43.672 37.045 47.863 30.758 19.81 45.756 8.664 59.646 1 43.466 24.046 76.542 24.644 78.423 51.13 80.028 73.71 64.507 91.317 46.639 99 46.845 76.175 24.089 73.067 21.801 54.397 20.905 47.094 25.062 33.766 30.545 28.822" fill="#ffffff" data-fill-palette-color="accent"></path></g></svg></g></svg></g></svg></g></svg></g></svg></g><defs></defs></svg><rect width="395.52" height="65.36691116099865" fill="none" stroke="none" visibility="hidden"></rect></g></svg></g></svg>